<?xml version="1.0" encoding="utf-8"?>
<!-- Svg Vector Icons : http://www.onlinewebfonts.com/icon -->
<!DOCTYPE svg PUBLIC "-//W3C//DTD SVG 1.1//EN" "http://www.w3.org/Graphics/SVG/1.1/DTD/svg11.dtd">
<svg version="1.1" xmlns="http://www.w3.org/2000/svg" xmlns:xlink="http://www.w3.org/1999/xlink" x="0px" y="0px" viewBox="0 0 1000 1000" enable-background="new 0 0 1000 1000" xml:space="preserve">
<metadata> Svg Vector Icons : http://www.onlinewebfonts.com/icon </metadata>
<g><path d="M131.6,88.2l780.2,780.2l-43.3,43.3L88.2,131.6L131.6,88.2z"/><path d="M500,633.6c14.2,0,27.9-2.2,40.7-6.3l-168-168c-4.1,12.8-6.3,26.5-6.3,40.7C366.4,573.9,426,633.6,500,633.6z"/><path d="M391.9,305.3c32-17.8,68.9-28,108.1-28c122.9,0,222.7,99.8,222.7,222.7c0,39.2-10.2,76.1-28,108.1l120.8,120.8C893,670.7,953.9,591.6,990,500c-77.1-195.5-267.3-334.1-490-334.1c-73,0-142.5,14.9-205.6,41.8L391.9,305.3z"/><path d="M500,366.4c-14.2,0-27.9,2.2-40.7,6.3l168,168c4.1-12.8,6.3-26.5,6.3-40.7C633.6,426.1,573.9,366.4,500,366.4z"/><path d="M608.1,694.8c-32,17.8-68.9,28-108.1,28c-122.9,0-222.7-99.8-222.7-222.7c0-39.2,10.2-76.1,28-108.1L184.5,271.2C107,329.4,46.1,408.4,10,500c77.1,195.5,267.3,334.1,490,334.1c73,0,142.5-14.9,205.6-41.8L608.1,694.8z"/></g>
</svg>