<?xml version="1.0" encoding="utf-8"?>
<!-- Svg Vector Icons : http://www.onlinewebfonts.com/icon -->
<!DOCTYPE svg PUBLIC "-//W3C//DTD SVG 1.1//EN" "http://www.w3.org/Graphics/SVG/1.1/DTD/svg11.dtd">
<svg version="1.1" xmlns="http://www.w3.org/2000/svg" xmlns:xlink="http://www.w3.org/1999/xlink" x="0px" y="0px" viewBox="0 0 1000 1000" enable-background="new 0 0 1000 1000" xml:space="preserve">
<metadata> Svg Vector Icons : http://www.onlinewebfonts.com/icon </metadata>
<g><path d="M500,834.1C277.3,834.1,87.1,695.6,10,500c77.1-195.6,267.3-334.1,490-334.1c222.7,0,412.9,138.5,490,334.1C912.9,695.6,722.7,834.1,500,834.1z M500,277.3c-122.9,0-222.8,99.8-222.8,222.8c0,122.9,99.8,222.7,222.8,222.7S722.7,622.9,722.7,500C722.7,377.1,622.9,277.3,500,277.3z M500,633.6c-73.9,0-133.6-59.7-133.6-133.6c0-73.9,59.7-133.6,133.6-133.6S633.7,426.1,633.7,500C633.7,574,574,633.6,500,633.6z"/></g>
</svg>